# MagicaVoxel @ Ephtracy

# group
o 

# material
mtllib building.mtl
usemtl palette

# normals
vn -1 0 0
vn 1 0 0
vn 0 0 1
vn 0 0 -1
vn 0 -1 0
vn 0 1 0

# texcoords
vt 0.974609 0.5
vt 0.982422 0.5

# verts
v -2.5 0 0.7
v -2.5 0 -2
v -2.5 2.8 0.7
v -2.5 2.8 -2
v 1.3 0.1 -5.96046e-08
v 1.3 0.1 -1.6
v 1.3 0.9 0.7
v 1.3 0.9 -5.96046e-08
v 1.3 2.5 0.7
v 1.3 2.5 -1.6
v 2.4 0.5 0.7
v 2.4 0.5 0.4
v 2.4 0.9 0.7
v 2.4 0.9 0.4
v -2.3 0.1 -5.96046e-08
v -2.3 0.1 -1.6
v -2.3 0.9 0.7
v -2.3 0.9 -5.96046e-08
v -2.3 2.5 0.7
v -2.3 2.5 -1.6
v 1.5 0 -0.6
v 1.5 0 -2
v 1.5 1 0.7
v 1.5 1 -0.6
v 1.5 2.8 0.7
v 1.5 2.8 -2
v 1.6 0.5 0.7
v 1.6 0.5 0.4
v 1.6 0.9 0.7
v 1.6 0.9 0.4
v 2.5 0 0.7
v 2.5 0 -0.6
v 2.5 1 0.7
v 2.5 1 -0.6
v -2.5 0 0.7
v -2.5 2.8 0.7
v -2.3 0.9 0.7
v -2.3 2.5 0.7
v 1.3 0.9 0.7
v 1.3 2.5 0.7
v 1.5 0 0.7
v 1.5 1 0.7
v 1.5 2.8 0.7
v 1.6 0.5 0.7
v 1.6 0.9 0.7
v 2.4 0.5 0.7
v 2.4 0.9 0.7
v 2.5 0 0.7
v 2.5 1 0.7
v 1.6 0.5 0.4
v 1.6 0.9 0.4
v 2.4 0.5 0.4
v 2.4 0.9 0.4
v -2.3 0.1 -1.6
v -2.3 2.5 -1.6
v 1.3 0.1 -1.6
v 1.3 2.5 -1.6
v -2.3 0.1 -5.96046e-08
v -2.3 0.9 -5.96046e-08
v 1.3 0.1 -5.96046e-08
v 1.3 0.9 -5.96046e-08
v 1.5 0 -0.6
v 1.5 1 -0.6
v 2.5 0 -0.6
v 2.5 1 -0.6
v -2.5 0 -2
v -2.5 2.8 -2
v 1.5 0 -2
v 1.5 2.8 -2
v -2.5 0 0.7
v 1.5 0 0.7
v 2.5 0 0.7
v 1.5 0 -0.6
v 2.5 0 -0.6
v -2.5 0 -2
v 1.5 0 -2
v 1.6 0.9 0.7
v 2.4 0.9 0.7
v 1.6 0.9 0.4
v 2.4 0.9 0.4
v -2.3 2.5 0.7
v 1.3 2.5 0.7
v -2.3 2.5 -1.6
v 1.3 2.5 -1.6
v -2.3 0.1 -5.96046e-08
v 1.3 0.1 -5.96046e-08
v -2.3 0.1 -1.6
v 1.3 0.1 -1.6
v 1.6 0.5 0.7
v 2.4 0.5 0.7
v 1.6 0.5 0.4
v 2.4 0.5 0.4
v -2.3 0.9 0.7
v 1.3 0.9 0.7
v -2.3 0.9 -5.96046e-08
v 1.3 0.9 -5.96046e-08
v 1.5 1 0.7
v 2.5 1 0.7
v 1.5 1 -0.6
v 2.5 1 -0.6
v -2.5 2.8 0.7
v 1.5 2.8 0.7
v -2.5 2.8 -2
v 1.5 2.8 -2

# faces
f 3/2/1 2/2/1 1/2/1
f 4/2/1 2/2/1 3/2/1
f 8/2/1 6/2/1 5/2/1
f 9/2/1 8/2/1 7/2/1
f 10/2/1 6/2/1 8/2/1
f 10/2/1 8/2/1 9/2/1
f 13/1/1 12/1/1 11/1/1
f 14/1/1 12/1/1 13/1/1
f 15/2/2 16/2/2 18/2/2
f 17/2/2 18/2/2 19/2/2
f 18/2/2 16/2/2 20/2/2
f 19/2/2 18/2/2 20/2/2
f 21/2/2 22/2/2 24/2/2
f 23/2/2 24/2/2 25/2/2
f 24/2/2 22/2/2 26/2/2
f 25/2/2 24/2/2 26/2/2
f 27/1/2 28/1/2 29/1/2
f 29/1/2 28/1/2 30/1/2
f 31/1/2 32/1/2 33/1/2
f 33/1/2 32/1/2 34/1/2
f 37/2/3 36/2/3 35/2/3
f 38/2/3 36/2/3 37/2/3
f 39/2/3 37/2/3 35/2/3
f 40/2/3 36/2/3 38/2/3
f 41/2/3 39/2/3 35/2/3
f 41/2/3 40/2/3 39/2/3
f 42/2/3 40/2/3 41/2/3
f 43/2/3 36/2/3 40/2/3
f 43/2/3 40/2/3 42/2/3
f 44/1/3 42/1/3 41/1/3
f 45/1/3 42/1/3 44/1/3
f 46/1/3 44/1/3 41/1/3
f 47/1/3 42/1/3 45/1/3
f 48/1/3 46/1/3 41/1/3
f 48/1/3 47/1/3 46/1/3
f 49/1/3 42/1/3 47/1/3
f 49/1/3 47/1/3 48/1/3
f 52/1/3 51/1/3 50/1/3
f 53/1/3 51/1/3 52/1/3
f 56/2/3 55/2/3 54/2/3
f 57/2/3 55/2/3 56/2/3
f 58/2/4 59/2/4 60/2/4
f 60/2/4 59/2/4 61/2/4
f 62/1/4 63/1/4 64/1/4
f 64/1/4 63/1/4 65/1/4
f 66/2/4 67/2/4 68/2/4
f 68/2/4 67/2/4 69/2/4
f 73/2/5 71/2/5 70/2/5
f 73/1/5 72/1/5 71/1/5
f 74/1/5 72/1/5 73/1/5
f 75/2/5 73/2/5 70/2/5
f 76/2/5 73/2/5 75/2/5
f 79/1/5 78/1/5 77/1/5
f 80/1/5 78/1/5 79/1/5
f 83/2/5 82/2/5 81/2/5
f 84/2/5 82/2/5 83/2/5
f 85/2/6 86/2/6 87/2/6
f 87/2/6 86/2/6 88/2/6
f 89/1/6 90/1/6 91/1/6
f 91/1/6 90/1/6 92/1/6
f 93/2/6 94/2/6 95/2/6
f 95/2/6 94/2/6 96/2/6
f 97/1/6 98/1/6 99/1/6
f 99/1/6 98/1/6 100/1/6
f 101/2/6 102/2/6 103/2/6
f 103/2/6 102/2/6 104/2/6
