# MagicaVoxel @ Ephtracy

# group
o 

# material
mtllib portal.mtl
usemtl palette

# normals
vn -1 0 0
vn 1 0 0
vn 0 0 1
vn 0 0 -1
vn 0 -1 0
vn 0 1 0

# texcoords
vt 0.970703 0.5
vt 0.974609 0.5
vt 0.978516 0.5

# verts
v -0.6 0 2.1
v -0.6 0 1.5
v -0.6 0 -1.5
v -0.6 0 -2.1
v -0.6 0.5 2.1
v -0.6 0.5 1.5
v -0.6 0.5 -1.5
v -0.6 0.5 -2.1
v -0.5 0 2.5
v -0.5 0 2.1
v -0.5 0 -2.1
v -0.5 0 -2.6
v -0.5 0.5 2.5
v -0.5 0.5 2.1
v -0.5 0.5 2
v -0.5 0.5 1.5
v -0.5 0.5 -1.5
v -0.5 0.5 -1.9
v -0.5 0.5 -2.1
v -0.5 0.5 -2.6
v -0.5 5.5 1.5
v -0.5 5.5 -1.5
v -0.5 6 2
v -0.5 6 1.5
v -0.5 6 1
v -0.5 6 -1.9
v -0.5 6.1 1.5
v -0.5 6.1 1
v -0.4 6 -1
v -0.4 6 -1.5
v -0.4 6.1 -1
v -0.4 6.1 -1.5
v -0.3 6.1 1.4
v -0.3 6.1 1.1
v -0.3 6.1 -1.1
v -0.3 6.1 -1.4
v -0.3 6.4 1.4
v -0.3 6.4 1.1
v -0.3 6.4 -1.1
v -0.3 6.4 -1.4
v 5.96046e-08 6.1 1.4
v 5.96046e-08 6.1 1.1
v 5.96046e-08 6.1 -1.1
v 5.96046e-08 6.1 -1.4
v 5.96046e-08 6.4 1.4
v 5.96046e-08 6.4 1.1
v 5.96046e-08 6.4 -1.1
v 5.96046e-08 6.4 -1.4
v 0.2 0 2.5
v 0.2 0 2.1
v 0.2 0 -2.1
v 0.2 0 -2.6
v 0.2 0.5 2.5
v 0.2 0.5 2.1
v 0.2 0.5 2
v 0.2 0.5 1.5
v 0.2 0.5 -1.5
v 0.2 0.5 -1.9
v 0.2 0.5 -2.1
v 0.2 0.5 -2.6
v 0.2 5.5 1.5
v 0.2 5.5 -1.5
v 0.2 6 2
v 0.2 6 1.5
v 0.2 6 1
v 0.2 6 -1
v 0.2 6 -1.5
v 0.2 6 -1.9
v 0.2 6.1 1.5
v 0.2 6.1 1
v 0.2 6.1 -1
v 0.2 6.1 -1.5
v 0.3 0 -1.5
v 0.3 0 -2.1
v 0.3 0.5 -1.5
v 0.3 0.5 -2.1
v 0.4 0 2.1
v 0.4 0 1.5
v 0.4 0.5 2.1
v 0.4 0.5 1.5
v -0.5 0 2.5
v -0.5 0.5 2.5
v 0.2 0 2.5
v 0.2 0.5 2.5
v -0.6 0 2.1
v -0.6 0.5 2.1
v -0.5 0 2.1
v -0.5 0.5 2.1
v 0.2 0 2.1
v 0.2 0.5 2.1
v 0.4 0 2.1
v 0.4 0.5 2.1
v -0.5 0.5 2
v -0.5 6 2
v 0.2 0.5 2
v 0.2 6 2
v -0.5 6 1.5
v -0.5 6.1 1.5
v 0.2 6 1.5
v 0.2 6.1 1.5
v -0.3 6.1 1.4
v -0.3 6.4 1.4
v 5.96046e-08 6.1 1.4
v 5.96046e-08 6.4 1.4
v -0.4 6 -1
v -0.4 6.1 -1
v 0.2 6 -1
v 0.2 6.1 -1
v -0.3 6.1 -1.1
v -0.3 6.4 -1.1
v 5.96046e-08 6.1 -1.1
v 5.96046e-08 6.4 -1.1
v -0.6 0 -1.5
v -0.6 0.5 -1.5
v -0.5 0 -1.5
v -0.5 0.5 -1.5
v -0.5 5.5 -1.5
v 0.2 0 -1.5
v 0.2 0.5 -1.5
v 0.2 5.5 -1.5
v 0.3 0 -1.5
v 0.3 0.5 -1.5
v -0.6 0 1.5
v -0.6 0.5 1.5
v -0.5 0 1.5
v -0.5 0.5 1.5
v -0.5 5.5 1.5
v 0.2 0 1.5
v 0.2 0.5 1.5
v 0.2 5.5 1.5
v 0.4 0 1.5
v 0.4 0.5 1.5
v -0.3 6.1 1.1
v -0.3 6.4 1.1
v 5.96046e-08 6.1 1.1
v 5.96046e-08 6.4 1.1
v -0.5 6 1
v -0.5 6.1 1
v 0.2 6 1
v 0.2 6.1 1
v -0.3 6.1 -1.4
v -0.3 6.4 -1.4
v 5.96046e-08 6.1 -1.4
v 5.96046e-08 6.4 -1.4
v -0.4 6 -1.5
v -0.4 6.1 -1.5
v 0.2 6 -1.5
v 0.2 6.1 -1.5
v -0.5 0.5 -1.9
v -0.5 6 -1.9
v 0.2 0.5 -1.9
v 0.2 6 -1.9
v -0.6 0 -2.1
v -0.6 0.5 -2.1
v -0.5 0 -2.1
v -0.5 0.5 -2.1
v 0.2 0 -2.1
v 0.2 0.5 -2.1
v 0.3 0 -2.1
v 0.3 0.5 -2.1
v -0.5 0 -2.6
v -0.5 0.5 -2.6
v 0.2 0 -2.6
v 0.2 0.5 -2.6
v -0.5 0 2.5
v 0.2 0 2.5
v -0.6 0 2.1
v -0.5 0 2.1
v 0.2 0 2.1
v 0.4 0 2.1
v -0.5 0 2
v 0.2 0 2
v -0.6 0 1.5
v -0.5 0 1.5
v 0.2 0 1.5
v 0.4 0 1.5
v -0.6 0 -1.5
v -0.5 0 -1.5
v 0.2 0 -1.5
v 0.3 0 -1.5
v -0.5 0 -1.9
v 0.2 0 -1.9
v -0.6 0 -2.1
v -0.5 0 -2.1
v 0.2 0 -2.1
v 0.3 0 -2.1
v -0.5 0 -2.6
v 0.2 0 -2.6
v -0.5 5.5 1.5
v 0.2 5.5 1.5
v -0.5 5.5 -1.5
v 0.2 5.5 -1.5
v -0.5 0.5 2.5
v 0.2 0.5 2.5
v -0.6 0.5 2.1
v -0.5 0.5 2.1
v 0.2 0.5 2.1
v 0.4 0.5 2.1
v -0.5 0.5 2
v 0.2 0.5 2
v -0.6 0.5 1.5
v -0.5 0.5 1.5
v 0.2 0.5 1.5
v 0.4 0.5 1.5
v -0.6 0.5 -1.5
v -0.5 0.5 -1.5
v 0.2 0.5 -1.5
v 0.3 0.5 -1.5
v -0.5 0.5 -1.9
v 0.2 0.5 -1.9
v -0.6 0.5 -2.1
v -0.5 0.5 -2.1
v 0.2 0.5 -2.1
v 0.3 0.5 -2.1
v -0.5 0.5 -2.6
v 0.2 0.5 -2.6
v -0.5 6 2
v 0.2 6 2
v -0.5 6 1.5
v 0.2 6 1.5
v -0.5 6 1
v 0.2 6 1
v -0.4 6 -1
v 0.2 6 -1
v -0.4 6 -1.5
v 0.2 6 -1.5
v -0.5 6 -1.9
v 0.2 6 -1.9
v -0.5 6.1 1.5
v 0.2 6.1 1.5
v -0.3 6.1 1.4
v 5.96046e-08 6.1 1.4
v -0.3 6.1 1.1
v 5.96046e-08 6.1 1.1
v -0.5 6.1 1
v 0.2 6.1 1
v -0.4 6.1 -1
v 0.2 6.1 -1
v -0.3 6.1 -1.1
v 5.96046e-08 6.1 -1.1
v -0.3 6.1 -1.4
v 5.96046e-08 6.1 -1.4
v -0.4 6.1 -1.5
v 0.2 6.1 -1.5
v -0.3 6.4 1.4
v 5.96046e-08 6.4 1.4
v -0.3 6.4 1.1
v 5.96046e-08 6.4 1.1
v -0.3 6.4 -1.1
v 5.96046e-08 6.4 -1.1
v -0.3 6.4 -1.4
v 5.96046e-08 6.4 -1.4

# faces
f 5/2/1 2/2/1 1/2/1
f 6/2/1 2/2/1 5/2/1
f 7/2/1 4/2/1 3/2/1
f 8/2/1 4/2/1 7/2/1
f 13/2/1 10/2/1 9/2/1
f 14/2/1 10/2/1 13/2/1
f 19/2/1 12/2/1 11/2/1
f 20/2/1 12/2/1 19/2/1
f 21/1/1 16/1/1 15/1/1
f 22/1/1 18/1/1 17/1/1
f 23/1/1 21/1/1 15/1/1
f 23/1/1 22/1/1 21/1/1
f 24/1/1 22/1/1 23/1/1
f 25/1/1 22/1/1 24/1/1
f 26/1/1 18/1/1 22/1/1
f 26/1/1 22/1/1 25/1/1
f 27/2/1 25/2/1 24/2/1
f 28/2/1 25/2/1 27/2/1
f 31/2/1 30/2/1 29/2/1
f 32/2/1 30/2/1 31/2/1
f 37/3/1 34/3/1 33/3/1
f 38/3/1 34/3/1 37/3/1
f 39/3/1 36/3/1 35/3/1
f 40/3/1 36/3/1 39/3/1
f 41/3/2 42/3/2 45/3/2
f 45/3/2 42/3/2 46/3/2
f 43/3/2 44/3/2 47/3/2
f 47/3/2 44/3/2 48/3/2
f 49/2/2 50/2/2 53/2/2
f 53/2/2 50/2/2 54/2/2
f 51/2/2 52/2/2 59/2/2
f 59/2/2 52/2/2 60/2/2
f 55/1/2 56/1/2 61/1/2
f 57/1/2 58/1/2 62/1/2
f 55/1/2 61/1/2 63/1/2
f 61/1/2 62/1/2 63/1/2
f 63/1/2 62/1/2 64/1/2
f 64/1/2 62/1/2 65/1/2
f 65/1/2 62/1/2 66/1/2
f 62/1/2 58/1/2 67/1/2
f 66/1/2 62/1/2 67/1/2
f 67/1/2 58/1/2 68/1/2
f 64/2/2 65/2/2 69/2/2
f 69/2/2 65/2/2 70/2/2
f 66/2/2 67/2/2 71/2/2
f 71/2/2 67/2/2 72/2/2
f 73/2/2 74/2/2 75/2/2
f 75/2/2 74/2/2 76/2/2
f 77/2/2 78/2/2 79/2/2
f 79/2/2 78/2/2 80/2/2
f 83/2/3 82/2/3 81/2/3
f 84/2/3 82/2/3 83/2/3
f 87/2/3 86/2/3 85/2/3
f 88/2/3 86/2/3 87/2/3
f 91/2/3 90/2/3 89/2/3
f 92/2/3 90/2/3 91/2/3
f 95/1/3 94/1/3 93/1/3
f 96/1/3 94/1/3 95/1/3
f 99/2/3 98/2/3 97/2/3
f 100/2/3 98/2/3 99/2/3
f 103/3/3 102/3/3 101/3/3
f 104/3/3 102/3/3 103/3/3
f 107/2/3 106/2/3 105/2/3
f 108/2/3 106/2/3 107/2/3
f 111/3/3 110/3/3 109/3/3
f 112/3/3 110/3/3 111/3/3
f 115/2/3 114/2/3 113/2/3
f 116/2/3 114/2/3 115/2/3
f 118/1/3 116/1/3 115/1/3
f 118/1/3 117/1/3 116/1/3
f 119/1/3 117/1/3 118/1/3
f 120/1/3 117/1/3 119/1/3
f 121/2/3 119/2/3 118/2/3
f 122/2/3 119/2/3 121/2/3
f 123/2/4 124/2/4 125/2/4
f 125/2/4 124/2/4 126/2/4
f 125/1/4 126/1/4 128/1/4
f 126/1/4 127/1/4 128/1/4
f 128/1/4 127/1/4 129/1/4
f 129/1/4 127/1/4 130/1/4
f 128/2/4 129/2/4 131/2/4
f 131/2/4 129/2/4 132/2/4
f 133/3/4 134/3/4 135/3/4
f 135/3/4 134/3/4 136/3/4
f 137/2/4 138/2/4 139/2/4
f 139/2/4 138/2/4 140/2/4
f 141/3/4 142/3/4 143/3/4
f 143/3/4 142/3/4 144/3/4
f 145/2/4 146/2/4 147/2/4
f 147/2/4 146/2/4 148/2/4
f 149/1/4 150/1/4 151/1/4
f 151/1/4 150/1/4 152/1/4
f 153/2/4 154/2/4 155/2/4
f 155/2/4 154/2/4 156/2/4
f 157/2/4 158/2/4 159/2/4
f 159/2/4 158/2/4 160/2/4
f 161/2/4 162/2/4 163/2/4
f 163/2/4 162/2/4 164/2/4
f 168/2/5 166/2/5 165/2/5
f 169/2/5 166/2/5 168/2/5
f 171/2/5 168/2/5 167/2/5
f 171/2/5 170/2/5 169/2/5
f 171/2/5 169/2/5 168/2/5
f 172/2/5 170/2/5 171/2/5
f 173/2/5 171/2/5 167/2/5
f 174/1/5 172/1/5 171/1/5
f 174/2/5 171/2/5 173/2/5
f 175/2/5 170/2/5 172/2/5
f 175/1/5 172/1/5 174/1/5
f 176/2/5 170/2/5 175/2/5
f 181/2/5 178/2/5 177/2/5
f 181/1/5 179/1/5 178/1/5
f 182/2/5 180/2/5 179/2/5
f 182/1/5 179/1/5 181/1/5
f 183/2/5 181/2/5 177/2/5
f 183/2/5 182/2/5 181/2/5
f 184/2/5 182/2/5 183/2/5
f 185/2/5 180/2/5 182/2/5
f 185/2/5 182/2/5 184/2/5
f 186/2/5 180/2/5 185/2/5
f 187/2/5 185/2/5 184/2/5
f 188/2/5 185/2/5 187/2/5
f 191/1/5 190/1/5 189/1/5
f 192/1/5 190/1/5 191/1/5
f 193/2/6 194/2/6 196/2/6
f 196/2/6 194/2/6 197/2/6
f 195/2/6 196/2/6 199/2/6
f 197/2/6 198/2/6 199/2/6
f 196/2/6 197/2/6 199/2/6
f 199/2/6 198/2/6 200/2/6
f 195/2/6 199/2/6 201/2/6
f 201/2/6 199/2/6 202/2/6
f 200/2/6 198/2/6 203/2/6
f 203/2/6 198/2/6 204/2/6
f 205/2/6 206/2/6 209/2/6
f 207/2/6 208/2/6 210/2/6
f 205/2/6 209/2/6 211/2/6
f 209/2/6 210/2/6 211/2/6
f 211/2/6 210/2/6 212/2/6
f 210/2/6 208/2/6 213/2/6
f 212/2/6 210/2/6 213/2/6
f 213/2/6 208/2/6 214/2/6
f 212/2/6 213/2/6 215/2/6
f 215/2/6 213/2/6 216/2/6
f 217/1/6 218/1/6 219/1/6
f 219/1/6 218/1/6 220/1/6
f 221/1/6 222/1/6 223/1/6
f 223/1/6 222/1/6 224/1/6
f 221/1/6 223/1/6 225/1/6
f 221/1/6 225/1/6 227/1/6
f 225/1/6 226/1/6 227/1/6
f 227/1/6 226/1/6 228/1/6
f 229/2/6 230/2/6 231/2/6
f 231/2/6 230/2/6 232/2/6
f 229/2/6 231/2/6 233/2/6
f 232/2/6 230/2/6 234/2/6
f 229/2/6 233/2/6 235/2/6
f 233/2/6 234/2/6 235/2/6
f 234/2/6 230/2/6 236/2/6
f 235/2/6 234/2/6 236/2/6
f 237/2/6 238/2/6 239/2/6
f 239/2/6 238/2/6 240/2/6
f 237/2/6 239/2/6 241/2/6
f 240/2/6 238/2/6 242/2/6
f 237/2/6 241/2/6 243/2/6
f 241/2/6 242/2/6 243/2/6
f 242/2/6 238/2/6 244/2/6
f 243/2/6 242/2/6 244/2/6
f 245/3/6 246/3/6 247/3/6
f 247/3/6 246/3/6 248/3/6
f 249/3/6 250/3/6 251/3/6
f 251/3/6 250/3/6 252/3/6
