# Blender v3.0.0 OBJ File: ''
# www.blender.org
mtllib puddle.mtl
o Плоскость
v -1.556191 0.000000 1.000000
v 0.039054 -0.029154 1.827748
v -1.000000 0.000000 -1.000000
v 0.456581 0.000000 -0.519043
v -1.000000 0.000000 -1.000000
v -1.000000 0.000000 -1.000000
v -1.000000 0.000000 -1.000000
v -1.000000 0.000000 -1.000000
v 0.456581 0.000000 -0.519043
v 1.000000 0.000000 1.000000
v 0.456581 0.000000 -0.519043
v -0.758568 -0.014577 1.640803
v -0.271710 0.000000 -0.759521
v -0.271710 0.000000 -0.978696
v -1.176090 0.000000 0.141687
v 0.247817 -0.014577 0.654353
v 0.728290 0.000000 0.240479
v -0.515139 -0.007288 0.440641
vt 0.500000 0.500000
vt 1.000000 0.500000
vt 1.000000 1.000000
vt 0.500000 1.000000
vt 1.000000 1.000000
vt 0.500000 1.000000
vt 1.000000 0.000000
vt 1.000000 0.000000
vt 1.000000 0.500000
vt 0.000000 1.000000
vt 0.000000 1.000000
vt 0.000000 0.500000
vt 0.000000 0.000000
vt 0.500000 0.000000
vt 1.000000 1.000000
vn 0.0020 1.0000 0.0096
vn 0.0000 1.0000 0.0000
vn -0.0232 0.9997 0.0083
vn 0.0038 1.0000 0.0038
vn 0.0106 0.9999 0.0068
vn 0.0111 0.9999 0.0113
usemtl Материал
s off
f 18/1/1 16/2/1 4/3/1 13/4/1
f 13/4/2 4/3/2 9/5/2 14/6/2
f 16/2/3 2/7/3 10/8/3 17/9/3
f 3/10/2 13/4/2 14/6/2 8/11/2
f 15/12/4 18/1/4 13/4/4 3/10/4
f 1/13/5 12/14/5 18/1/5 15/12/5
f 4/3/3 16/2/3 17/9/3 11/15/3
f 12/14/6 2/7/6 16/2/6 18/1/6
l 3 5
l 5 6
l 6 7
