# MagicaVoxel @ Ephtracy

# group
o 

# material
mtllib room1.mtl
usemtl palette

# normals
vn -1 0 0
vn 1 0 0
vn 0 0 1
vn 0 0 -1
vn 0 -1 0
vn 0 1 0

# texcoords
vt 0.970703 0.5
vt 0.974609 0.5
vt 0.978516 0.5

# verts
v -3.5 0 2
v -3.5 0 -2
v -3.5 0.1 0.5
v -3.5 0.1 -0.6
v -3.5 1.8 0.5
v -3.5 1.8 -0.6
v -3.5 4 2
v -3.5 4 -2
v 2.4 0.1 -0.8
v 2.4 0.1 -0.9
v 2.4 1.5 -0.9
v 2.4 1.5 -1.9
v 2.4 1.7 -0.8
v 2.4 1.7 -1.8
v 2.4 4 -1.8
v 2.4 4 -1.9
v 2.5 0.1 -0.9
v 2.5 0.1 -1.9
v 2.5 1.5 -0.9
v 2.5 1.5 -1.9
v 2.5 1.7 -0.9
v 2.5 1.7 -1.8
v 2.5 4 -0.9
v 2.5 4 -1.8
v 3.4 0.1 2
v 3.4 0.1 0.4
v 3.4 0.1 -0.9
v 3.4 1.7 0.4
v 3.4 1.7 -0.9
v 3.4 4 2
v 3.4 4 -0.9
v -3.4 0.1 2
v -3.4 0.1 0.5
v -3.4 0.1 -0.6
v -3.4 0.1 -1.9
v -3.4 1.8 0.5
v -3.4 1.8 -0.6
v -3.4 4 2
v -3.4 4 -1.9
v 2.6 0.1 -0.8
v 2.6 0.1 -0.9
v 2.6 1.7 -0.8
v 2.6 1.7 -0.9
v 3.5 0 2
v 3.5 0 -2
v 3.5 0.1 0.4
v 3.5 0.1 -0.9
v 3.5 1.7 0.4
v 3.5 1.7 -0.9
v 3.5 4 2
v 3.5 4 -2
v -3.5 0 2
v -3.5 4 2
v -3.4 0.1 2
v -3.4 4 2
v 3.4 0.1 2
v 3.4 4 2
v 3.5 0 2
v 3.5 4 2
v 2.4 0.1 -0.8
v 2.4 1.7 -0.8
v 2.6 0.1 -0.8
v 2.6 1.7 -0.8
v 2.5 1.7 -0.9
v 2.5 4 -0.9
v 2.6 0.1 -0.9
v 2.6 1.7 -0.9
v 3.4 0.1 -0.9
v 3.4 1.7 -0.9
v 3.4 4 -0.9
v 2.4 1.7 -1.8
v 2.4 4 -1.8
v 2.5 1.7 -1.8
v 2.5 4 -1.8
v -3.4 0.1 -1.9
v -3.4 4 -1.9
v 2.4 1.5 -1.9
v 2.4 4 -1.9
v 2.5 0.1 -1.9
v 2.5 1.5 -1.9
v 2.4 0.1 -0.9
v 2.4 1.5 -0.9
v 2.5 0.1 -0.9
v 2.5 1.5 -0.9
v -3.5 0 -2
v -3.5 4 -2
v 3.5 0 -2
v 3.5 4 -2
v -3.5 0 2
v 3.5 0 2
v -3.5 0 -2
v 3.5 0 -2
v 2.4 1.5 -0.9
v 2.5 1.5 -0.9
v 2.4 1.5 -1.9
v 2.5 1.5 -1.9
v -3.4 0.1 2
v 3.4 0.1 2
v -3.4 0.1 0.5
v 3.4 0.1 0.4
v -3.4 0.1 -0.6
v 2.4 0.1 -0.8
v 2.6 0.1 -0.8
v 2.4 0.1 -0.9
v 2.5 0.1 -0.9
v 2.6 0.1 -0.9
v 3.4 0.1 -0.9
v -3.4 0.1 -1.9
v 2.5 0.1 -1.9
v 2.4 1.7 -0.8
v 2.6 1.7 -0.8
v 2.5 1.7 -0.9
v 2.6 1.7 -0.9
v 2.4 1.7 -1.8
v 2.5 1.7 -1.8
v -3.5 4 2
v -3.4 4 2
v 3.4 4 2
v 3.5 4 2
v 2.5 4 -0.9
v 3.4 4 -0.9
v 2.4 4 -1.8
v 2.5 4 -1.8
v -3.4 4 -1.9
v 2.4 4 -1.9
v 2.5 4 -1.9
v -3.5 4 -2
v 3.5 4 -2

# faces
f 3/1/1 2/1/1 1/1/1
f 4/1/1 2/1/1 3/1/1
f 5/1/1 3/1/1 1/1/1
f 5/2/1 4/2/1 3/2/1
f 6/1/1 2/1/1 4/1/1
f 6/2/1 4/2/1 5/2/1
f 7/1/1 5/1/1 1/1/1
f 7/1/1 6/1/1 5/1/1
f 8/1/1 2/1/1 6/1/1
f 8/1/1 6/1/1 7/1/1
f 11/3/1 10/3/1 9/3/1
f 13/3/1 11/3/1 9/3/1
f 13/3/1 12/3/1 11/3/1
f 14/3/1 12/3/1 13/3/1
f 15/3/1 12/3/1 14/3/1
f 16/3/1 12/3/1 15/3/1
f 19/1/1 18/1/1 17/1/1
f 20/1/1 18/1/1 19/1/1
f 23/1/1 22/1/1 21/1/1
f 24/1/1 22/1/1 23/1/1
f 28/1/1 26/1/1 25/1/1
f 28/2/1 27/2/1 26/2/1
f 29/2/1 27/2/1 28/2/1
f 30/1/1 28/1/1 25/1/1
f 30/1/1 29/1/1 28/1/1
f 31/1/1 29/1/1 30/1/1
f 32/1/2 33/1/2 36/1/2
f 33/2/2 34/2/2 36/2/2
f 34/1/2 35/1/2 37/1/2
f 36/2/2 34/2/2 37/2/2
f 32/1/2 36/1/2 38/1/2
f 36/1/2 37/1/2 38/1/2
f 37/1/2 35/1/2 39/1/2
f 38/1/2 37/1/2 39/1/2
f 40/3/2 41/3/2 42/3/2
f 42/3/2 41/3/2 43/3/2
f 44/1/2 45/1/2 46/1/2
f 46/1/2 45/1/2 47/1/2
f 44/1/2 46/1/2 48/1/2
f 46/2/2 47/2/2 48/2/2
f 47/1/2 45/1/2 49/1/2
f 48/2/2 47/2/2 49/2/2
f 44/1/2 48/1/2 50/1/2
f 48/1/2 49/1/2 50/1/2
f 49/1/2 45/1/2 51/1/2
f 50/1/2 49/1/2 51/1/2
f 54/1/3 53/1/3 52/1/3
f 55/1/3 53/1/3 54/1/3
f 56/1/3 54/1/3 52/1/3
f 58/1/3 56/1/3 52/1/3
f 58/1/3 57/1/3 56/1/3
f 59/1/3 57/1/3 58/1/3
f 62/3/3 61/3/3 60/3/3
f 63/3/3 61/3/3 62/3/3
f 67/1/3 65/1/3 64/1/3
f 68/1/3 67/1/3 66/1/3
f 69/1/3 65/1/3 67/1/3
f 69/1/3 67/1/3 68/1/3
f 70/1/3 65/1/3 69/1/3
f 73/3/3 72/3/3 71/3/3
f 74/3/3 72/3/3 73/3/3
f 77/1/3 76/1/3 75/1/3
f 78/1/3 76/1/3 77/1/3
f 79/1/3 77/1/3 75/1/3
f 80/1/3 77/1/3 79/1/3
f 81/3/4 82/3/4 83/3/4
f 83/3/4 82/3/4 84/3/4
f 85/1/4 86/1/4 87/1/4
f 87/1/4 86/1/4 88/1/4
f 91/1/5 90/1/5 89/1/5
f 92/1/5 90/1/5 91/1/5
f 95/3/5 94/3/5 93/3/5
f 96/3/5 94/3/5 95/3/5
f 97/1/6 98/1/6 99/1/6
f 99/1/6 98/1/6 100/1/6
f 99/1/6 100/1/6 101/1/6
f 101/1/6 100/1/6 102/1/6
f 102/1/6 100/1/6 103/1/6
f 101/1/6 102/1/6 104/1/6
f 103/1/6 100/1/6 106/1/6
f 106/1/6 100/1/6 107/1/6
f 104/1/6 105/1/6 108/1/6
f 101/1/6 104/1/6 108/1/6
f 108/1/6 105/1/6 109/1/6
f 110/3/6 111/3/6 112/3/6
f 112/3/6 111/3/6 113/3/6
f 110/3/6 112/3/6 114/3/6
f 114/3/6 112/3/6 115/3/6
f 118/1/6 119/1/6 121/1/6
f 120/1/6 121/1/6 123/1/6
f 116/1/6 117/1/6 124/1/6
f 122/3/6 123/3/6 125/3/6
f 123/1/6 121/1/6 126/1/6
f 125/3/6 123/3/6 126/3/6
f 116/1/6 124/1/6 127/1/6
f 124/1/6 125/1/6 127/1/6
f 125/1/6 126/1/6 127/1/6
f 126/1/6 121/1/6 128/1/6
f 127/1/6 126/1/6 128/1/6
f 121/1/6 119/1/6 128/1/6
